# xmcd
#
# Track frame offsets:
#	150
#	13309
#	29326
#	66003
#	77320
#	94007
#	116985
#	132748
#	147666
#	160558
#	187616
#	200264
#	219260
#	233225
#	254764
#	270801
#	284263
#
# Disc length: 4043 seconds
#
# Revision: 1
# Processed by: cddbd v1.5.2PL0 Copyright (c) Steve Scherf et al.
# Submitted via: audiograbber 1.83.01
#
DISCID=ed0fc911
DTITLE=Nobodys´s Business - ...to be continued
DYEAR=1900
DGENRE=
TTITLE0=Everydays i have the blues
TTITLE1=Messin with the Kid
TTITLE2=Stormy Monday
TTITLE3=Bright Lights, Big City
TTITLE4=Nobody knows you when you´re down and out
TTITLE5=Just want to make love to you
TTITLE6=It hurts me too
TTITLE7=Sugar Sweet
TTITLE8=Shake your Moneymaker
TTITLE9=Ain´t Nobody´s Business
TTITLE10=You don´t have to go
TTITLE11=Dust my Broom
TTITLE12=I´m tore down
TTITLE13=You got me on so bad
TTITLE14=Pride and Joy
TTITLE15=I don´t know it
TTITLE16=Love in Vain
EXTD=
EXTT0=
EXTT1=
EXTT2=
EXTT3=
EXTT4=
EXTT5=
EXTT6=
EXTT7=
EXTT8=
EXTT9=
EXTT10=
EXTT11=
EXTT12=
EXTT13=
EXTT14=
EXTT15=
EXTT16=
PLAYORDER=
